<?xml version="1.0" standalone="no"?>
<!DOCTYPE svg PUBLIC "-//W3C//DTD SVG 20010904//EN"
 "http://www.w3.org/TR/2001/REC-SVG-20010904/DTD/svg10.dtd">
<svg version="1.0" xmlns="http://www.w3.org/2000/svg"
 width="1895.000000pt" height="845.000000pt" viewBox="0 0 1895.000000 845.000000"
 preserveAspectRatio="xMidYMid meet">

<g transform="translate(0.000000,845.000000) scale(0.100000,-0.100000)"
fill="#000000" stroke="none">
<path d="M3635 6904 c-226 -26 -342 -48 -493 -95 -882 -271 -1516 -1024 -1637
-1942 -17 -135 -20 -418 -5 -552 42 -362 176 -733 374 -1029 105 -157 184
-252 323 -386 138 -135 184 -172 339 -276 302 -202 664 -333 1029 -374 55 -6
572 -10 1343 -10 l1252 0 0 1165 0 1165 -584 0 -583 0 -6 -97 c-19 -324 -210
-660 -487 -855 -212 -149 -474 -227 -725 -214 -317 16 -581 137 -800 367 -387
406 -431 1019 -107 1479 221 313 572 492 961 491 280 -1 519 -87 739 -265 l84
-68 412 411 411 412 -65 60 c-433 399 -1016 624 -1600 618 -80 -1 -158 -4
-175 -5z"/>
<path d="M12630 5650 l0 -680 145 0 145 0 0 324 0 324 37 32 c47 41 91 60 143
60 52 0 75 -12 97 -53 16 -28 18 -69 21 -359 l3 -328 145 0 144 0 0 309 c0
170 -5 345 -10 388 -15 110 -60 198 -123 240 -119 79 -282 64 -419 -41 l-43
-33 4 248 3 249 -146 0 -146 0 0 -680z"/>
<path d="M7792 6240 c-155 -41 -282 -136 -364 -271 -77 -127 -111 -308 -90
-474 29 -232 139 -400 317 -485 105 -50 169 -64 290 -64 148 0 284 43 393 123
l42 31 0 290 0 290 -235 0 -235 0 0 -115 0 -115 105 0 105 0 0 -110 0 -109
-32 -18 c-24 -13 -56 -17 -120 -17 -79 0 -93 3 -155 34 -120 62 -171 157 -180
335 -11 219 64 369 214 425 97 36 223 22 297 -33 17 -13 36 -26 42 -30 7 -4
44 29 90 80 l78 86 -44 40 c-128 113 -333 155 -518 107z"/>
<path d="M8935 5954 c-74 -12 -157 -39 -237 -76 -49 -23 -88 -44 -88 -48 0 -7
29 -62 76 -147 l24 -41 67 33 c167 81 303 64 332 -43 6 -20 9 -37 8 -38 -1 -2
-47 -10 -102 -19 -235 -38 -357 -101 -412 -213 -53 -109 -28 -255 58 -341 54
-53 112 -75 199 -75 90 1 161 26 238 84 28 22 52 34 52 27 0 -6 5 -29 11 -49
l10 -38 119 0 120 0 0 273 c0 422 -18 516 -114 613 -66 65 -139 94 -251 99
-44 2 -93 1 -110 -1z m185 -623 l0 -79 -42 -36 c-46 -39 -88 -51 -151 -43 -70
10 -97 69 -62 137 23 45 139 97 223 99 l32 1 0 -79z"/>
<path d="M10135 5947 c-66 -18 -119 -46 -180 -98 l-50 -42 -9 62 -9 61 -118 0
-119 0 0 -480 0 -480 145 0 145 0 0 329 0 329 33 24 c74 57 143 73 201 47 51
-24 56 -60 56 -409 l0 -320 146 0 145 0 -3 373 c-3 363 -4 373 -27 431 -28 71
-78 128 -135 156 -55 26 -155 34 -221 17z"/>
<path d="M11063 5945 c-169 -47 -293 -174 -338 -346 -19 -71 -19 -230 0 -302
42 -161 152 -279 308 -329 97 -32 239 -29 342 6 44 15 99 39 123 52 l43 25
-42 77 c-23 42 -46 81 -50 86 -5 6 -28 1 -56 -12 -164 -75 -324 -36 -384 93
-37 79 -54 74 269 77 l287 3 3 104 c1 57 -2 128 -8 157 -27 131 -125 252 -237
294 -74 28 -192 35 -260 15z m197 -234 c34 -25 58 -68 66 -119 l7 -42 -176 0
-175 0 10 38 c20 74 63 122 127 143 38 12 112 2 141 -20z"/>
<path d="M11992 5945 c-268 -58 -347 -360 -134 -507 25 -17 98 -53 161 -80
168 -69 202 -115 133 -177 -24 -21 -33 -23 -101 -19 -76 5 -142 29 -212 79
l-25 18 -58 -81 c-32 -45 -60 -87 -63 -94 -2 -6 22 -28 54 -48 180 -113 430
-121 580 -20 86 59 123 132 123 244 0 140 -69 213 -279 295 -65 25 -127 54
-139 66 -30 27 -30 82 0 103 47 33 169 14 250 -39 l36 -24 57 75 c30 41 58 81
61 88 11 28 -124 100 -225 122 -81 17 -137 17 -219 -1z"/>
<path d="M14050 5949 c-30 -5 -71 -14 -90 -20 -58 -18 -210 -92 -210 -102 0
-7 75 -153 94 -184 1 -1 34 14 74 34 143 69 260 67 309 -6 13 -19 23 -44 23
-57 0 -19 -7 -24 -37 -29 -198 -30 -301 -62 -379 -115 -88 -62 -132 -157 -121
-265 16 -157 127 -259 281 -260 84 0 145 20 228 76 32 22 60 39 62 39 3 0 8
-20 12 -45 l6 -45 119 0 119 0 0 323 c0 252 -4 336 -15 386 -42 178 -152 267
-340 276 -44 2 -105 0 -135 -6z m200 -622 c0 -74 -3 -86 -22 -104 -61 -56
-162 -71 -212 -32 -21 16 -26 29 -26 63 0 48 17 76 63 105 37 23 127 49 170
50 l27 1 0 -83z"/>
<path d="M4590 4891 c0 -41 31 -91 56 -91 25 0 17 65 -12 99 -34 41 -44 39
-44 -8z"/>
<path d="M13393 4560 c-54 -24 -83 -70 -83 -130 0 -62 29 -106 87 -132 144
-64 288 62 224 196 -39 79 -138 108 -228 66z"/>
<path d="M7814 4460 c-104 -15 -212 -64 -286 -129 -134 -119 -210 -345 -194
-577 26 -374 245 -604 576 -604 277 0 477 162 551 445 27 103 29 304 6 415
-68 312 -335 497 -653 450z m205 -270 c118 -60 179 -210 168 -415 -12 -230
-105 -363 -261 -373 -193 -12 -307 161 -293 445 6 122 23 189 67 255 71 107
208 145 319 88z"/>
<path d="M12670 4392 c0 -15 -31 -247 -34 -249 -1 -1 -35 -6 -74 -9 l-72 -7 0
-108 0 -109 65 0 65 0 0 -212 c0 -117 4 -239 10 -271 19 -120 81 -211 170
-250 64 -29 196 -34 295 -12 70 15 76 19 72 38 -3 12 -13 59 -23 105 l-17 82
-36 -7 c-88 -18 -146 5 -168 68 -8 22 -12 109 -12 247 l-1 212 115 0 115 0 0
115 0 115 -115 0 -115 0 0 130 0 130 -120 0 c-66 0 -120 -4 -120 -8z"/>
<path d="M9133 4145 c-49 -15 -124 -57 -143 -79 -22 -28 -37 -18 -44 29 l-7
45 -120 0 -119 0 0 -665 0 -665 146 0 147 0 -5 215 -5 215 21 -15 c75 -54 120
-70 206 -70 76 0 92 3 151 32 160 79 251 254 251 483 1 239 -90 410 -248 469
-63 24 -166 27 -231 6z m107 -243 c44 -32 72 -103 78 -200 8 -143 -31 -256
-103 -298 -43 -26 -122 -23 -176 7 l-44 24 -3 206 -2 206 36 28 c74 57 157 67
214 27z"/>
<path d="M10110 4147 c-172 -49 -296 -187 -335 -372 -19 -88 -19 -144 -1 -238
55 -284 317 -442 610 -367 69 17 206 76 206 87 0 3 -21 42 -46 88 l-47 83 -56
-26 c-43 -21 -75 -27 -141 -30 -78 -3 -90 -1 -140 25 -59 31 -104 90 -116 151
l-6 32 289 0 290 0 7 63 c8 77 -9 202 -35 270 -42 106 -115 182 -212 219 -65
25 -204 33 -267 15z m216 -237 c33 -31 54 -79 54 -125 l0 -35 -170 0 c-164 0
-170 1 -170 20 0 27 26 89 48 114 40 44 74 57 144 54 55 -3 72 -8 94 -28z"/>
<path d="M11255 4136 c-61 -29 -92 -56 -138 -118 l-36 -48 -6 48 c-3 26 -8 64
-11 85 l-6 38 -116 -3 -117 -3 0 -480 0 -480 143 -3 142 -3 0 283 0 283 30 53
c55 94 147 138 246 115 l43 -10 11 51 c5 28 16 84 24 124 l13 74 -24 9 c-47
18 -145 10 -198 -15z"/>
<path d="M11831 4149 c-106 -21 -285 -99 -279 -122 8 -29 89 -177 98 -177 5 0
11 4 15 9 3 5 42 24 87 41 140 54 247 40 283 -36 29 -61 22 -71 -47 -79 -93
-11 -237 -49 -299 -80 -65 -33 -123 -86 -152 -140 -32 -58 -30 -190 2 -258 45
-93 150 -157 257 -157 65 0 164 35 228 81 31 22 59 39 61 38 1 -2 7 -24 12
-49 l9 -45 118 -3 118 -3 -4 343 c-4 320 -6 347 -26 408 -41 122 -116 194
-234 226 -58 15 -178 17 -247 3z m219 -617 l0 -89 -47 -34 c-43 -30 -55 -34
-111 -34 -58 0 -66 3 -89 29 -20 24 -24 37 -20 69 9 63 59 102 170 132 99 26
97 28 97 -73z"/>
<path d="M14167 4149 c-118 -28 -247 -131 -300 -241 -170 -354 50 -757 413
-758 220 0 404 146 455 361 31 132 14 292 -42 402 -31 62 -113 150 -171 184
-96 57 -244 78 -355 52z m202 -246 c14 -10 40 -46 56 -78 28 -56 30 -67 30
-170 -1 -93 -4 -118 -24 -163 -29 -65 -68 -99 -125 -107 -69 -11 -124 18 -161
86 -29 52 -30 58 -30 184 0 120 2 135 25 180 45 88 156 121 229 68z"/>
<path d="M15389 4136 c-60 -24 -107 -54 -151 -94 -15 -14 -30 -23 -33 -21 -2
3 -8 30 -12 60 l-8 54 -118 3 -117 3 0 -486 0 -486 143 3 142 3 3 327 2 327
41 34 c53 46 117 64 170 48 74 -22 74 -22 77 -403 l3 -338 144 0 145 0 0 338
c0 427 -13 495 -106 586 -71 69 -215 88 -325 42z"/>
<path d="M13330 3655 l0 -485 145 0 145 0 0 485 0 485 -145 0 -145 0 0 -485z"/>
</g>
</svg>
